<svg xmlns="http://www.w3.org/2000/svg" width="497" height="230" viewBox="0 0 497 230" fill="none"><path d="M27.1402 229.212V211.322H11.7855V229.212H0V184.405H11.7855V201.893H27.1402V184.405H38.896V229.212H27.1402Z" fill="#1D1D1F"></path><path d="M77.9507 229.212H47.2637V184.405H77.9507V193.632H58.9154V202.496H76.761V210.965H58.9154V219.992H77.9507V229.212Z" fill="#1D1D1F"></path><path d="M93.9948 215.917C94.1584 218.579 96.7237 221.166 101.676 221.166C106.405 221.166 108.472 219.166 108.472 216.541C108.472 213.917 106.241 212.764 101.944 211.916L95.8984 210.697C89.0427 209.351 83.7559 205.745 83.7559 197.766C83.7559 188.71 91.1916 183.587 101.602 183.587C113.023 183.587 119.194 189.989 119.224 197.439H108.442C108.309 194.941 106.145 192.316 101.579 192.316C97.5417 192.316 95.4374 194.19 95.4374 196.815C95.4374 199.082 97.5788 200.391 101.386 201.083L107.654 202.265C114.019 203.41 120.027 206.592 120.027 215.329C120.027 224.066 113.491 230 101.319 230C87.3027 230 82.938 222.512 82.8711 215.917H93.9948Z" fill="#1D1D1F"></path><path d="M126.326 229.212V184.405H138.536L149.436 208.072H149.83L160.709 184.405H172.821V229.212H162.27V202.332H161.742L152.819 221.895H146.217L137.286 202.332H136.766V229.212H126.326Z" fill="#1D1D1F"></path><path d="M177.193 229.212L191.373 184.405H205.917L220 229.212H207.457L204.869 219.493H191.485L188.86 229.212H177.193ZM197.976 194.651L193.611 211.061H202.832L198.534 194.651H197.976Z" fill="#1D1D1F"></path><path d="M224.355 229.212V184.405H233.479L250.581 209.418H251.042V184.405H261.906V229.212H252.849L235.68 203.931H235.256V229.212H224.355Z" fill="#1D1D1F"></path><path d="M309.073 199.41C308.641 195.796 305.89 193.171 301.555 193.171C296.469 193.171 293.317 196.844 293.317 204.168V209.225C293.317 215.359 295.287 220.445 301.786 220.445C306.708 220.445 309.4 217.33 309.4 213.946V212.459H302.306V204.362H320.464V212.995C320.464 221.04 315.408 230 301.526 230C287.242 230 281.449 220.646 281.449 209.284V204.035C281.449 192.026 288.64 183.616 301.667 183.616C314.307 183.616 320.315 191.595 320.442 199.41H309.073Z" fill="#1D1D1F"></path><path d="M363.36 199.313C363.394 201.966 362.658 204.571 361.242 206.815C359.826 209.058 357.79 210.843 355.381 211.954L364.304 229.19H351.306L343.826 213.53H338.539V229.19H326.984V184.405H346.451C357.753 184.405 363.36 190.613 363.36 199.313ZM344.614 205.418C348.451 205.418 351.247 203.41 351.247 199.343C351.247 195.275 348.273 193.075 344.681 193.075H338.539V205.418H344.614Z" fill="#1D1D1F"></path><path d="M367.977 204.466C367.977 191.729 375.368 183.646 388.328 183.646C401.288 183.646 408.65 191.825 408.65 204.466V209.388C408.65 221.992 401.326 230 388.298 230C375.271 230 367.977 221.969 367.977 209.388V204.466ZM379.993 209.448C379.993 216.802 383.309 220.549 388.328 220.549C393.347 220.549 396.634 216.831 396.634 209.448V204.302C396.634 196.948 393.317 193.104 388.328 193.104C383.339 193.104 379.993 196.948 379.993 204.302V209.448Z" fill="#1D1D1F"></path><path d="M426.434 212.206C426.434 217.687 429.453 220.252 433.788 220.252C438.123 220.252 441.134 217.627 441.134 212.206V184.405H452.927V213.716C452.927 223.598 445.544 230 433.795 230C422.047 230 414.686 223.568 414.686 213.686V184.405H426.441L426.434 212.206Z" fill="#1D1D1F"></path><path d="M480.195 184.405C490.798 184.405 496.115 191.758 496.115 200.265C496.115 208.89 490.694 215.88 480.031 215.88H472.514V229.204H460.766V184.405H480.195ZM472.447 207.187H476.418C481.214 207.187 484.233 205.12 484.233 200.265C484.233 195.729 481.541 193.305 477.273 193.305H472.447V207.187Z" fill="#1D1D1F"></path><path d="M269.268 26.2033C269.264 22.0556 267.621 18.0777 264.695 15.1372C261.77 12.1967 257.801 10.5321 253.653 10.5066V10.5066C249.506 10.5302 245.537 12.193 242.612 15.1324C239.686 18.0717 238.042 22.0488 238.038 26.1958V26.1958C238.038 58.2361 237.934 89.9715 237.934 121.982C237.925 127.082 235.897 131.97 232.293 135.578C228.69 139.187 223.805 141.223 218.706 141.24V141.24C213.621 141.207 208.754 139.166 205.167 135.562C201.579 131.958 199.561 127.082 199.551 121.997V121.997V52.2058C199.551 49.9002 198.637 47.6887 197.008 46.0565C196.208 45.249 195.256 44.6073 194.207 44.1684C193.159 43.7295 192.033 43.5019 190.896 43.4986V43.4986C189.756 43.5005 188.628 43.7281 187.576 44.1684C186.525 44.6087 185.571 45.253 184.769 46.0639V46.0639C183.145 47.6957 182.231 49.9033 182.226 52.2058V94.076C182.226 99.1679 180.204 104.051 176.605 107.654C174.836 109.444 172.73 110.867 170.409 111.839C168.087 112.811 165.596 113.315 163.08 113.32V113.32C160.568 113.313 158.083 112.812 155.766 111.843C153.448 110.875 151.345 109.459 149.576 107.676C147.768 105.899 146.329 103.784 145.34 101.45C144.351 99.1164 143.832 96.6105 143.814 94.076V94.076V73.0777C143.812 72.6227 143.631 72.1868 143.308 71.8657C143.151 71.7066 142.963 71.5806 142.756 71.495C142.549 71.4095 142.327 71.3661 142.104 71.3675V71.3675C141.878 71.3685 141.656 71.4139 141.448 71.5012C141.24 71.5886 141.052 71.716 140.894 71.8763C140.736 72.0366 140.611 72.2265 140.526 72.4353C140.441 72.644 140.399 72.8674 140.401 73.0926V73.0926V80.0821H129.887V73.0926C129.895 69.8439 131.192 66.7313 133.493 64.4375C134.621 63.2966 135.964 62.391 137.445 61.7732C138.926 61.1554 140.514 60.8378 142.118 60.8386C145.352 60.864 148.446 62.1631 150.729 64.4541C153.012 66.7452 154.299 69.8436 154.313 73.0777V94.076C154.323 96.3826 155.242 98.5923 156.871 100.225C158.493 101.851 160.693 102.768 162.99 102.776V102.776C164.13 102.778 165.258 102.553 166.31 102.115C167.361 101.677 168.316 101.035 169.117 100.225V100.225C170.741 98.5957 171.658 96.3916 171.668 94.0909V52.1909C171.672 47.1063 173.694 42.231 177.289 38.6357V38.6357C179.062 36.8475 181.171 35.4276 183.495 34.4577C185.819 33.4879 188.311 32.9872 190.829 32.9846C193.345 32.9858 195.835 33.4851 198.157 34.4537C200.478 35.4224 202.585 36.8412 204.355 38.6283C207.962 42.2268 209.992 47.1107 209.999 52.2058V52.2058V121.99C209.997 123.134 210.22 124.268 210.657 125.326C211.094 126.384 211.735 127.346 212.544 128.156C213.352 128.966 214.313 129.609 215.37 130.047C216.428 130.486 217.561 130.712 218.706 130.712V130.712C221.009 130.702 223.214 129.78 224.839 128.148C226.463 126.516 227.376 124.307 227.376 122.004V122.004C227.376 90.031 227.487 58.2584 227.487 26.2182C227.503 19.2849 230.258 12.6387 235.152 7.72782C240.046 2.8169 246.683 0.0392201 253.616 0V0C257.044 0.00346742 260.437 0.686007 263.6 2.0082C266.762 3.33039 269.632 5.26604 272.042 7.70335C276.955 12.6025 279.725 19.25 279.745 26.1884V94.076C279.747 96.3827 280.664 98.5943 282.296 100.225C283.096 101.034 284.049 101.676 285.1 102.114C286.15 102.552 287.277 102.777 288.415 102.776V102.776C290.721 102.772 292.93 101.854 294.56 100.223C296.189 98.592 297.105 96.3815 297.107 94.076V94.076V66.1997C297.109 61.1036 299.13 56.2159 302.729 52.6073V52.6073C304.5 50.8212 306.607 49.4025 308.928 48.4328C311.249 47.463 313.739 46.9612 316.254 46.9562V46.9562C318.772 46.9588 321.265 47.4595 323.589 48.4293C325.913 49.3992 328.022 50.8191 329.795 52.6073C333.393 56.212 335.424 61.0913 335.446 66.1849V94.076C335.45 96.3765 336.364 98.5819 337.989 100.21C338.79 101.02 339.745 101.662 340.797 102.1C341.848 102.537 342.976 102.762 344.116 102.761V102.761C346.412 102.753 348.613 101.836 350.235 100.21V100.21C351.865 98.5785 352.782 96.3675 352.786 94.0612V94.0612V80.1342H363.277V94.076C363.278 96.6015 362.782 99.1024 361.816 101.436C360.85 103.769 359.434 105.89 357.649 107.676V107.676C355.88 109.459 353.776 110.875 351.459 111.843C349.142 112.812 346.657 113.313 344.145 113.32V113.32C341.628 113.314 339.136 112.811 336.813 111.838C334.491 110.866 332.383 109.444 330.612 107.654V107.654C327.009 104.052 324.977 99.1707 324.961 94.076V66.1849C324.958 63.8799 324.044 61.6696 322.418 60.0356V60.0356C320.796 58.4038 318.593 57.4813 316.291 57.4703C315.154 57.4753 314.029 57.7044 312.98 58.1446C311.931 58.5848 310.98 59.2273 310.179 60.0356V60.0356C309.373 60.8432 308.733 61.8021 308.298 62.8574C307.863 63.9126 307.641 65.0434 307.644 66.1849V94.076C307.634 99.1613 305.616 104.037 302.028 107.641C298.441 111.245 293.575 113.286 288.489 113.32V113.32C283.393 113.304 278.509 111.271 274.908 107.665C271.306 104.058 269.278 99.1729 269.268 94.076V26.2033Z" fill="#1D1D1F"></path></svg>